<?xml version="1.0" encoding="UTF-8"?>
<svg id="_h_1" data-name="ϼh 1" xmlns="http://www.w3.org/2000/svg" viewBox="0 0 303.57 303.58">
  <defs>
    <style>
      .cls-1 {
        fill: #00330f;
      }

      .cls-2 {
        fill: #fff;
      }

      .cls-2, .cls-3, .cls-4 {
        fill-rule: evenodd;
      }

      .cls-5 {
        fill: none;
        stroke: #fff;
        stroke-miterlimit: 22.93;
        stroke-width: 2px;
      }

      .cls-3 {
        fill: #00a040;
      }

      .cls-4 {
        fill: #f6ab00;
      }
    </style>
  </defs>
  <ellipse class="cls-5" cx="151.25" cy="149.13" rx="102.82" ry="102.01"/>
  <path class="cls-3" d="M291.18,86.06c6.01,13.99,4.26,28.64,6.9,44.3,4.41,26.1,10.48,46.57-1.63,80.85-8.62,24.41-42.56,46.7-68.85,63.44-11.95,7.61-16.37,13.66-27.98,18.93-34.78,15.8-67.89,12.75-101.13-8.27-19.27-12.19-47.79-20.71-63.75-39.57-7.42-8.77-12.7-18.36-18.73-28.74C-9.36,173.31-3.03,114.9,24.13,78.72,36.67,48.76,50.96,19.23,79.05,7.02c30.28-13.16,76.31-3.46,112.58-5.23,34.41-1.69,80.4,39.71,99.55,84.27Z"/>
  <ellipse class="cls-1" cx="151.43" cy="150.79" rx="102.74" ry="101.94"/>
  <path class="cls-2" d="M58.17,194.05c-24.67-51.38-2.55-113.24,49.23-137.71,51.78-24.47,114.13-2.53,138.8,48.84s2.55,113.24-49.23,137.71c-51.78,24.47-114.13,2.53-138.8-48.84h0Zm2.51-1.19c24.01,50,84.69,71.36,135.09,47.54,50.4-23.82,71.92-84.03,47.91-134.03-24.01-50-84.69-71.36-135.09-47.54-50.4,23.82-71.92,84.03-47.91,134.03Z"/>
  <path class="cls-2" d="M205.68,157.31l13-49.42,6.6-.02,6.64-.02,11.58,49.35c.27,1.17,.57,1.89,.9,2.2,.32,.3,.97,.45,1.93,.45h2.17s0,6.76,0,6.76l-11.61,.04-11.67,.04v-6.77h2.09c1.14-.01,1.92-.21,2.32-.62,.41-.4,.51-1.07,.29-2.05l-1.55-7.64-12.75,.04-1.87,7.65c-.25,.97-.19,1.65,.17,2.04,.38,.41,1.14,.6,2.28,.6h2.09s0,6.76,0,6.76l-8.86,.03-8.86,.03v-6.77h2.27c.68,0,1.27-.25,1.78-.72,.49-.47,.84-1.12,1.06-1.95h0Zm11.53-14.45l9.72-.03-4.41-21.44h0l-5.31,21.47Z"/>
  <path class="cls-2" d="M155.74,157.18c0,.98,.22,1.67,.65,2.08,.43,.4,1.19,.6,2.28,.6h1.95v6.85h-17.71v-6.85h1.95c1.09,0,1.86-.2,2.28-.6,.43-.41,.65-1.1,.65-2.08v-40.43c0-.98-.22-1.67-.65-2.08-.43-.4-1.19-.6-2.28-.6h-1.95v-6.85h23.42l7.1,36.34h.03l9.17-36.34h21.93v6.85h-1.95c-1.09,0-1.86,.2-2.28,.6-.43,.41-.65,1.1-.65,2.08v40.19c0,1.23,.19,2.03,.56,2.43,.38,.39,1.14,.56,2.28,.5h2.05v6.85h-23.42v-6.85h1.95c1.09,0,1.86-.2,2.28-.6,.43-.41,.65-1.1,.65-2.08v-33.5h.02l-10.94,43.03h-8.45l-10.91-48.54h0v39.01Z"/>
  <path class="cls-2" d="M109.28,157.15v-40.28c0-1.23-.19-2.03-.55-2.43-.38-.39-1.14-.56-2.28-.5h-2.05v-6.87h25.5c6.42,0,11.16,1.39,14.22,4.15,3.06,2.76,4.6,7.02,4.6,12.77s-1.67,10.2-5,13.02c-3.33,2.8-8.45,4.21-15.35,4.21h-5.44v15.93c0,.99,.17,1.67,.54,2.07,.35,.41,.98,.61,1.87,.61h3.9v6.87h-24.85v-6.87h1.95c1.09,0,1.86-.21,2.28-.63,.43-.39,.65-1.07,.65-2.06h0Zm13.65-22.8h3.63c3.03,0,5.2-.8,6.52-2.39,1.32-1.59,1.98-4.22,1.98-7.88s-.67-6.24-1.98-7.79c-1.32-1.56-3.49-2.35-6.52-2.35h-3.63v20.41Z"/>
  <path class="cls-2" d="M80.06,157.17v-43.06h-.17c-3.28,0-5.6,1-6.93,2.98-1.33,2-2,5.44-2,10.33v3.34h-6.45v-23.59h44.77v23.59h-6.45v-3.34c0-4.89-.67-8.33-2-10.33-1.33-1.99-3.65-2.98-6.93-2.98h-.17v42.82c0,1.23,.29,2.03,.84,2.43,.55,.39,1.65,.56,3.3,.5h3.01v6.86h-27.73v-6.86h4c1.09,0,1.86-.21,2.28-.63,.43-.39,.65-1.07,.65-2.06Z"/>
  <path class="cls-2" d="M121.95,276.95c-.12,.28-.16,.49-.11,.64,.05,.15,.2,.27,.45,.37l.45,.17-.86,1.92-2.02-.77-2.03-.77,.86-1.92,.45,.17c.25,.1,.45,.11,.6,.03,.15-.08,.29-.25,.41-.53l5.09-11.32c.12-.28,.16-.49,.11-.64-.05-.15-.2-.27-.45-.37l-.45-.17,.86-1.92,2.68,1.02,2.68,1.02-2.95,10.79h0s6.67-9.37,6.67-9.37l2.51,.96,2.51,.96-.86,1.92-.45-.17c-.25-.1-.45-.11-.6-.03-.15,.08-.29,.25-.41,.53l-5.06,11.25c-.15,.34-.21,.58-.18,.73,.04,.14,.19,.26,.46,.34l.47,.18-.86,1.92-2.68-1.02-2.68-1.02,.86-1.92,.45,.17c.25,.1,.45,.11,.6,.03,.15-.08,.29-.25,.41-.53l4.22-9.38h0s-7.92,11.09-7.92,11.09l-.97-.37-.97-.37,3.61-14.54h0l-4.91,10.92Z"/>
  <path class="cls-2" d="M136.26,284.92c-1.03-.17-1.72-.61-2.08-1.29-.35-.69-.31-1.5,.13-2.44,.39-.82,.97-1.47,1.76-1.95,.79-.48,1.99-.92,3.61-1.31l1.71-.41c.26-.06,.51-.16,.75-.28,.37-.18,.68-.4,.94-.67,.26-.27,.47-.59,.63-.97,.16-.37,.2-.68,.11-.93-.13-.5-.63-.82-1.52-.98-.75-.13-1.37-.11-1.87,.07h.03s.31,.02,.31,.02c.45,.08,.74,.28,.87,.61,.13,.33,.08,.73-.15,1.22-.2,.42-.55,.75-1.07,1.01-.52,.25-1.02,.34-1.51,.26-.61-.1-1.02-.38-1.2-.81-.19-.44-.13-.97,.17-1.61,.46-.98,1.26-1.69,2.41-2.14,1.14-.45,2.42-.56,3.83-.32,1.33,.23,2.22,.7,2.66,1.43,.44,.72,.4,1.64-.13,2.76l-2.72,5.78c-.41,.87-.66,1.45-.74,1.72-.08,.27-.05,.42,.09,.44,.2,.03,.37-.02,.49-.14,.12-.13,.29-.43,.51-.89l.42-.88,1.29,.22-.42,.88c-.44,.93-.99,1.6-1.65,2.03-.67,.43-1.41,.57-2.21,.43-.95-.16-1.46-.66-1.54-1.48,0-.21,0-.44,.03-.7-.23,.2-.47,.37-.71,.52-1.11,.71-2.19,.98-3.22,.8h0Zm5.02-4.44l.9-1.92-.07,.04c-1.88,.91-3.05,1.52-3.53,1.84-.47,.32-.84,.74-1.08,1.26-.2,.42-.25,.77-.16,1.03,.1,.26,.34,.42,.73,.49,.53,.09,1.05-.09,1.57-.52,.2-.16,.41-.38,.65-.65,.15-.17,.32-.4,.5-.71,.19-.3,.35-.59,.48-.86Z"/>
  <path class="cls-2" d="M147.6,284.17l2.55-7.97c.1-.3,.12-.5,.08-.62-.04-.12-.17-.18-.39-.2l-.37-.03,.58-1.8,1.44,.12,1.45,.12,.65,.05-.52,1.61,.31-.3c1.06-1.03,2.08-1.51,3.07-1.43,.66,.05,1.1,.35,1.31,.89,.21,.54,.17,1.25-.11,2.15l-2.56,8.01c-.09,.28-.11,.48-.06,.61,.05,.12,.18,.19,.39,.21l.38,.03-.58,1.8-2.19-.18-2.2-.18,.58-1.8,.34,.03c.18,.01,.33-.03,.44-.14,.12-.11,.22-.31,.31-.59l2.31-7.21c.11-.34,.12-.62,.03-.84-.09-.22-.26-.34-.5-.36-.49-.04-.95,.22-1.38,.79-.43,.57-.82,1.44-1.18,2.62l-1.54,4.82c-.09,.28-.12,.48-.08,.61,.04,.12,.14,.19,.32,.2l.33,.03-.58,1.8-2.17-.18-2.17-.18,.58-1.8,.37,.03c.2,.02,.37-.03,.49-.15,.12-.11,.23-.3,.32-.58Z"/>
  <path class="cls-2" d="M159.81,287.65c-.91,.05-1.58-.23-2-.83-.42-.6-.52-1.41-.3-2.44,.19-.89,.59-1.66,1.19-2.3,.6-.64,1.56-1.33,2.89-2.07l1.4-.77c.21-.12,.41-.26,.6-.43,.29-.25,.52-.54,.7-.86,.18-.33,.3-.68,.38-1.09,.07-.4,.05-.71-.06-.94-.19-.46-.69-.68-1.48-.64-.66,.03-1.2,.19-1.6,.47h.02s.28-.05,.28-.05c.4-.02,.68,.12,.85,.41,.16,.29,.19,.71,.07,1.24-.1,.45-.35,.86-.75,1.22-.4,.36-.82,.55-1.26,.58-.55,.03-.94-.15-1.17-.55-.23-.39-.27-.93-.12-1.63,.23-1.06,.8-1.93,1.71-2.63,.91-.69,1.99-1.07,3.25-1.13,1.18-.06,2.03,.22,2.53,.84,.5,.62,.62,1.54,.36,2.75l-1.37,6.29c-.21,.95-.32,1.57-.35,1.85-.02,.29,.03,.42,.15,.42,.18,0,.31-.09,.4-.25,.09-.15,.18-.48,.29-.99l.21-.96,1.14-.06-.21,.96c-.22,1.01-.58,1.79-1.08,2.36-.51,.56-1.11,.86-1.83,.9-.84,.04-1.37-.33-1.57-1.13-.04-.21-.08-.43-.09-.69-.17,.24-.34,.47-.52,.67-.84,.94-1.72,1.43-2.64,1.48h0Zm3.57-5.46l.45-2.08-.05,.05c-1.46,1.3-2.37,2.15-2.72,2.57-.35,.42-.59,.91-.72,1.47-.1,.46-.09,.81,.04,1.05,.13,.24,.36,.34,.71,.33,.47-.02,.89-.31,1.26-.85,.14-.2,.29-.47,.45-.78,.1-.2,.2-.47,.31-.8,.12-.34,.21-.65,.27-.95Z"/>
  <path class="cls-2" d="M183.19,283.82c-1.22,.13-2.15-.37-2.77-1.5-.63-1.13-.96-2.89-1-5.28-.03-2.26,.26-4.03,.88-5.32,.62-1.29,1.52-1.99,2.69-2.11,1.07-.11,1.89,.34,2.46,1.35,.57,1.01,.87,2.54,.9,4.59l.02,1.22-4.47,.47c.04,1.75,.17,2.95,.38,3.6,.22,.7,.62,1.01,1.22,.95,.52-.05,.89-.38,1.11-.99,.23-.6,.3-1.48,.23-2.64l1.55-.16c.07,1.84-.16,3.24-.69,4.2-.53,.97-1.36,1.51-2.5,1.62h0Zm.71-8.65c-.03-1.36-.11-2.27-.23-2.75-.14-.54-.42-.79-.84-.75-.41,.04-.67,.41-.8,1.1-.09,.51-.14,1.37-.16,2.61l2.03-.21Z"/>
  <path class="cls-2" d="M189.02,279.05l-1.06-8.23c-.04-.31-.11-.5-.2-.58-.1-.08-.25-.08-.48,0l-.38,.15-.24-1.86,1.48-.57,1.48-.57,.66-.25,.24,1.84,.23-.62c.57-1.4,1.35-2.29,2.35-2.67,.67-.26,1.23-.2,1.68,.17,.3,.25,.53,.63,.68,1.14l.21-.53c.58-1.41,1.38-2.31,2.4-2.7,.68-.26,1.25-.2,1.7,.18,.45,.38,.74,1.03,.85,1.96l1.06,8.27c.04,.29,.11,.48,.21,.57,.1,.09,.26,.09,.48,0l.39-.15,.24,1.86-2.23,.85-2.23,.85-.24-1.86,.32-.12c.17-.07,.29-.17,.35-.32,.06-.15,.07-.37,.03-.66l-.96-7.45c-.04-.35-.16-.6-.35-.76-.19-.16-.41-.18-.67-.08-.51,.19-.85,.64-1.01,1.34-.17,.7-.17,1.66,.01,2.87l.64,4.98c.04,.29,.1,.48,.2,.58,.09,.09,.23,.1,.42,.03l.34-.13,.24,1.86-2.17,.83-2.17,.83-.24-1.86,.32-.12c.17-.07,.29-.17,.35-.32,.06-.15,.07-.37,.03-.66l-.95-7.43c-.05-.36-.16-.62-.35-.77-.18-.16-.41-.19-.67-.09-.51,.2-.85,.64-1.02,1.34-.17,.7-.16,1.66,.01,2.87l.64,4.98c.04,.29,.1,.48,.2,.58,.09,.09,.24,.1,.43,.02l.35-.14,.24,1.86-2.25,.86-2.26,.87-.24-1.86,.38-.15c.21-.08,.35-.2,.42-.36,.07-.15,.09-.37,.05-.66Z"/>
  <path class="cls-2" d="M222.39,258.54l-2.74-7.56-1.18,.7-.59-1.62c.89-.66,1.43-1.27,1.62-1.82,.22-.66,.17-1.5-.16-2.52l1.67-1,1.03,2.84,2.2-1.32,.59,1.62-2.2,1.32,2.68,7.4c.19,.54,.37,.88,.53,1.04,.16,.16,.35,.17,.56,.04,.27-.16,.41-.36,.44-.6,.02-.24-.06-.63-.25-1.15l-.3-.84,1.39-.83,.3,.84c.4,1.09,.47,1.99,.22,2.71-.24,.71-.86,1.36-1.84,1.95-1.03,.62-1.86,.83-2.48,.64-.62-.18-1.13-.79-1.5-1.82Z"/>
  <path class="cls-2" d="M171.19,278.75c-.02,.38,.09,.61,.33,.69,.24,.08,.69,.03,1.36-.13l2.02-.5c1.17-.29,2.05-.23,2.61,.2,.56,.43,.81,1.22,.76,2.37-.05,1.25-.48,2.28-1.28,3.09-.79,.82-1.97,1.42-3.51,1.8-1.54,.39-2.69,.46-3.45,.23-.75-.23-1.11-.78-1.07-1.64,.02-.51,.18-.97,.48-1.39,.3-.41,.72-.73,1.25-.97-.16-.06-.32-.13-.46-.22-.62-.4-.92-1.06-.88-1.98,.02-.52,.17-1.06,.46-1.61,.29-.55,.62-.96,1.01-1.23l-.19-.16c-.54-.58-.77-1.66-.7-3.23,.07-1.68,.44-3.05,1.1-4.12,.66-1.06,1.56-1.74,2.7-2.02,.94-.24,1.69-.15,2.25,.27,.07-.25,.17-.5,.31-.76,.42-.79,.99-1.27,1.73-1.46,.54-.14,.96-.03,1.25,.33,.29,.36,.42,.92,.38,1.69-.03,.59-.14,1.06-.36,1.42-.21,.36-.51,.58-.9,.68-.33,.08-.57,.03-.73-.16-.16-.19-.23-.5-.21-.94,.02-.44,.11-.78,.28-1.02,.17-.24,.43-.4,.78-.49h.01c-.14-.18-.33-.25-.55-.19-.37,.09-.66,.38-.87,.84-.14,.32-.21,.67-.23,1.05,0,.08,0,.2,.03,.37,.02,.17,.05,.34,.09,.51,.11,.52,.15,1.13,.11,1.82-.07,1.71-.41,3.03-1.02,3.96-.61,.93-1.53,1.55-2.78,1.86-.56,.15-1.05,.2-1.47,.16-.17,.09-.31,.21-.43,.39-.12,.17-.18,.34-.19,.51h0Zm2.45-9.14c-.4,.1-.7,.42-.89,.95-.19,.53-.31,1.37-.36,2.52-.05,1.23-.01,2.05,.13,2.47,.14,.42,.42,.58,.84,.48,.39-.1,.69-.42,.89-.97,.2-.55,.33-1.39,.38-2.54,.05-1.11,0-1.9-.16-2.37-.16-.46-.43-.64-.82-.54h0Zm-2.88,14.33c-.02,.46,.2,.75,.67,.86,.47,.11,1.17,.04,2.12-.19,.95-.24,1.67-.54,2.15-.91,.48-.37,.74-.81,.76-1.33,.01-.32-.1-.5-.34-.55-.24-.06-.69,0-1.36,.17l-2.02,.5c-.31,.08-.61,.13-.89,.15-.29,.08-.55,.25-.76,.5-.21,.25-.32,.52-.33,.81Z"/>
  <path class="cls-2" d="M208.29,273.93c-1.35,.71-2.45,.67-3.3-.1-.85-.78-1.45-2.3-1.81-4.58-.33-2.15-.23-3.99,.29-5.52,.53-1.53,1.44-2.64,2.73-3.32,1.18-.62,2.15-.58,2.92,.11,.77,.69,1.31,2.01,1.61,3.96l.18,1.16-4.94,2.6c.28,1.65,.57,2.74,.89,3.27,.34,.56,.83,.67,1.48,.33,.58-.3,.95-.8,1.12-1.48,.17-.68,.14-1.57-.09-2.64l1.72-.9c.32,1.73,.24,3.18-.22,4.36-.46,1.18-1.33,2.1-2.59,2.76h0Zm-.33-8.63c-.21-1.28-.42-2.12-.62-2.52-.23-.45-.58-.56-1.03-.32-.45,.24-.7,.72-.75,1.44-.04,.53,.02,1.38,.17,2.58l2.24-1.18Z"/>
  <path class="cls-2" d="M214.21,266.28l-2.78-7.7c-.1-.29-.21-.46-.31-.52-.11-.06-.25-.03-.43,.1l-.31,.22-.63-1.73,1.22-.85,1.22-.86,.55-.38,.56,1.56,.06-.43c.22-1.47,.75-2.5,1.58-3.09,.56-.39,1.09-.45,1.58-.18,.49,.27,.9,.84,1.21,1.7l2.79,7.73c.1,.27,.2,.44,.32,.5,.11,.06,.26,.03,.44-.09l.32-.23,.63,1.74-1.85,1.3-1.86,1.3-.63-1.73,.28-.2c.15-.11,.24-.24,.27-.4,.02-.16-.01-.38-.11-.65l-2.51-6.96c-.12-.33-.28-.55-.48-.66-.2-.11-.41-.09-.62,.05-.42,.29-.62,.79-.62,1.5,0,.71,.22,1.63,.65,2.75l1.68,4.65c.1,.27,.2,.44,.3,.52,.1,.07,.23,.05,.38-.05l.28-.19,.63,1.74-1.84,1.29-1.84,1.28-.63-1.74,.32-.22c.17-.12,.27-.27,.3-.43,.03-.16,0-.38-.1-.65Z"/>
  <path class="cls-2" d="M243.3,239.69l-7.24-12.53,1.28-1.07,1.29-1.08,12.01,8.55c.28,.2,.48,.31,.61,.32,.12,.01,.28-.06,.46-.22l.42-.35,1.34,1.43-2.25,1.88-2.26,1.89-1.34-1.43,.41-.34c.22-.18,.33-.35,.33-.5,0-.15-.11-.31-.35-.48l-1.81-1.36-2.47,2.06,1.15,1.92c.14,.25,.29,.38,.44,.4,.15,.02,.34-.06,.56-.24l.41-.34,1.34,1.43-1.72,1.44-1.72,1.44-1.34-1.43,.44-.37c.13-.11,.2-.26,.2-.44,0-.18-.06-.37-.18-.58h0Zm-.61-4.91l1.88-1.57-5.1-3.81h0l3.21,5.39Z"/>
  <path class="cls-2" d="M254.93,220.46c-1.04-.2-2.02-.16-2.96,.09-.94,.26-1.68,.71-2.24,1.36-.43,.5-.67,.94-.72,1.32-.05,.38,.1,.67,.44,.85,.28,.15,.77,.08,1.46-.22,.69-.31,1.58-.83,2.68-1.59,1.77-1.22,3.24-1.98,4.4-2.29,1.16-.31,2.2-.21,3.13,.29,1.06,.57,1.58,1.42,1.58,2.53,0,1.11-.55,2.3-1.62,3.55-1.23,1.43-2.62,2.34-4.18,2.73l-.27,.06,.62,1.17-1.2,1.4-4.59-2.49,1.48-1.72c1.29,.25,2.49,.19,3.58-.17,1.09-.36,2.04-1.01,2.84-1.94,.39-.46,.6-.88,.61-1.26,0-.37-.17-.67-.55-.87-.31-.17-.84-.1-1.56,.2-.73,.3-1.65,.84-2.78,1.62-1.78,1.22-3.23,1.99-4.37,2.31-1.14,.32-2.15,.24-3.05-.25-1.02-.55-1.52-1.37-1.51-2.45,.02-1.08,.55-2.23,1.59-3.45,1.02-1.19,2.23-1.95,3.63-2.29h.07s-.33-1.12-.33-1.12l1.2-1.39,4.14,2.24-1.51,1.76Z"/>
  <path class="cls-2" d="M261.79,210.45c-1.1,0-2.07,.18-2.93,.53-.86,.35-1.47,.82-1.84,1.42-.28,.46-.39,.85-.33,1.16,.07,.31,.29,.51,.69,.61,.33,.08,.8-.05,1.4-.4,.6-.35,1.34-.9,2.21-1.68,1.41-1.24,2.66-2.07,3.73-2.49,1.07-.42,2.14-.5,3.21-.25,1.22,.29,2,.88,2.32,1.77,.32,.89,.12,1.91-.58,3.06-.81,1.32-1.93,2.25-3.38,2.8l-.25,.09,.96,.84-.79,1.29-5.32-1.27,.97-1.59c1.36,0,2.54-.23,3.53-.68,.98-.45,1.74-1.11,2.27-1.97,.26-.42,.34-.79,.24-1.09-.1-.3-.37-.5-.8-.61-.36-.09-.86,.05-1.5,.4-.64,.35-1.4,.92-2.3,1.71-1.42,1.24-2.65,2.07-3.69,2.5-1.04,.43-2.08,.52-3.12,.27-1.18-.28-1.92-.85-2.22-1.72-.3-.86-.11-1.86,.58-2.98,.67-1.1,1.66-1.89,2.96-2.37h.07s-.66-.85-.66-.85l.79-1.29,4.79,1.15-.99,1.63Z"/>
  <path class="cls-2" d="M275.07,203.42c-.35,1.37-1.19,2.34-2.51,2.91-1.32,.57-3.24,.8-5.74,.68-2.46-.13-4.19-.54-5.16-1.23-.98-.68-1.29-1.71-.93-3.08,.36-1.37,1.19-2.35,2.5-2.93,1.29-.57,3.15-.79,5.57-.67h.08c2.51,.12,4.26,.53,5.25,1.23,.99,.7,1.31,1.73,.96,3.1h0Zm-2.07-.1c.12-.48-.14-.81-.78-1.01-.64-.2-2-.34-4.06-.45-2.03-.1-3.4-.09-4.12,.04-.71,.13-1.13,.43-1.26,.91-.12,.48,.13,.81,.76,1.01,.64,.19,1.96,.34,3.99,.44,2.06,.1,3.46,.09,4.18-.03,.73-.12,1.15-.42,1.28-.9Z"/>
  <path class="cls-2" d="M277.82,185.34l-8.31-.33c-.31-.01-.54,.04-.68,.14-.15,.11-.26,.31-.34,.61l-.14,.52-1.87-.07,.54-2,.55-2.01,.24-.9,10.99,.43c.29,.01,.52-.04,.67-.15,.15-.11,.27-.31,.35-.61l.14-.53,1.87,.07-.85,3.11-.85,3.12-1.87-.07,.14-.52c.08-.28,.07-.49-.03-.61-.08-.12-.27-.19-.57-.2h0Zm-15.23-2.22c-.17,.61-.11,1.13,.16,1.56,.27,.43,.69,.66,1.24,.68,.56,.02,1.08-.17,1.58-.57,.5-.4,.83-.91,.99-1.52,.17-.61,.12-1.13-.15-1.56-.27-.43-.68-.66-1.24-.68-.56-.02-1.08,.17-1.59,.57-.5,.4-.84,.91-1,1.52Z"/>
  <path class="cls-2" d="M282.42,175.27c-.25,1.1-.76,1.96-1.53,2.59-.78,.63-1.68,.9-2.7,.83-.89-.06-1.58-.4-2.07-1-.49-.6-.91-1.64-1.26-3.1l-.37-1.55c-.06-.23-.15-.45-.27-.64-.18-.3-.41-.53-.69-.68-.29-.16-.63-.24-1.04-.25-.4-.01-.74,.07-1.03,.26-.56,.32-.94,.96-1.16,1.91-.18,.8-.19,1.42-.02,1.85v-.03s.04-.33,.04-.33c.11-.48,.35-.85,.72-1.11,.37-.26,.81-.37,1.35-.33,.45,.03,.81,.26,1.06,.68,.25,.42,.32,.89,.21,1.41-.15,.66-.47,1.17-.96,1.53-.49,.36-1.08,.51-1.77,.46-1.06-.08-1.8-.6-2.25-1.57-.44-.97-.49-2.21-.15-3.72,.32-1.42,.89-2.5,1.72-3.23,.82-.73,1.84-1.05,3.05-.96l6.26,.45c.94,.07,1.57,.09,1.86,.07,.3-.03,.46-.11,.5-.26,.05-.22,0-.36-.13-.44-.14-.07-.45-.13-.96-.16l-.96-.07,.31-1.37,.96,.07c1,.07,1.72,.36,2.16,.86,.44,.5,.56,1.19,.36,2.04-.23,1.02-.8,1.72-1.72,2.12-.23,.09-.49,.18-.77,.25,.2,.16,.38,.33,.54,.51,.73,.83,.97,1.81,.72,2.92h0Zm-4.66-3.29l-2.07-.15,.04,.06c.91,1.52,1.53,2.46,1.86,2.81,.33,.35,.78,.55,1.34,.59,.46,.03,.84-.05,1.13-.25,.29-.2,.48-.51,.58-.93,.13-.57-.04-1.02-.5-1.37-.17-.13-.4-.26-.69-.39-.18-.08-.43-.16-.76-.22-.32-.08-.63-.12-.93-.15Z"/>
  <path class="cls-2" d="M280.61,164.84l-8.76,.05-.03,1.3h-1.87c-.09-1.01-.35-1.7-.76-2.05-.49-.41-1.31-.64-2.47-.67l.05-1.85,3.3-.02,.06-2.43h1.87s-.06,2.42-.06,2.42l8.57-.05c.62,0,1.05-.05,1.29-.14,.24-.09,.36-.26,.37-.5,0-.29-.1-.49-.31-.59-.21-.1-.63-.15-1.23-.15h-.97s.04-1.53,.04-1.53h.97c1.26-.01,2.16,.21,2.68,.67,.53,.45,.78,1.22,.75,2.3-.03,1.14-.32,1.96-.86,2.47-.54,.51-1.41,.77-2.61,.78Z"/>
  <path class="cls-2" d="M280.78,155.18l-8.33-.15c-.31,0-.52,.04-.62,.14-.11,.1-.15,.28-.13,.55l.04,.47-1.88-.03-.14-1.81-.14-1.81-.06-.81,11.02,.19c.29,0,.5-.05,.62-.15,.11-.1,.16-.29,.14-.55l-.04-.48,1.88,.03,.22,2.81,.22,2.81-1.88-.03-.04-.47c-.02-.26-.1-.44-.23-.55-.13-.11-.34-.17-.63-.17h0Zm-15.83-1.73c-.04-.55,.11-1.01,.47-1.38,.36-.37,.82-.55,1.37-.54,.56,0,1.05,.21,1.46,.59,.42,.38,.64,.85,.69,1.4,.04,.55-.11,1.01-.47,1.38-.36,.37-.81,.55-1.37,.54-.56,0-1.05-.21-1.46-.59-.42-.38-.65-.85-.7-1.4Z"/>
  <path class="cls-2" d="M283.53,145.46c-.2,1.67-.93,2.89-2.19,3.65-1.25,.76-3.15,1.14-5.67,1.13-2.48-.02-4.25-.42-5.3-1.2-1.06-.77-1.48-2-1.28-3.67,.2-1.68,.93-2.9,2.17-3.68,1.23-.75,3.06-1.13,5.5-1.11h.08c2.52,0,4.32,.41,5.39,1.19,1.07,.79,1.5,2.02,1.3,3.69h0Zm-2.08-.01c.07-.58-.23-.98-.89-1.18-.67-.2-2.04-.31-4.11-.32-2.04-.01-3.41,.07-4.12,.27-.7,.19-1.09,.58-1.16,1.16-.07,.59,.22,.98,.87,1.17,.66,.2,2,.3,4.04,.32,2.08,.01,3.47-.07,4.18-.26,.71-.19,1.11-.57,1.18-1.16Z"/>
  <path class="cls-2" d="M280.4,138.31l-8.35-.02c-.31,0-.52,.04-.63,.12-.11,.08-.16,.23-.14,.45l.03,.38h-1.88s-.1-1.47-.1-1.47l-.11-1.47-.05-.66h1.69s-.35-.21-.35-.21c-1.19-.72-1.83-1.59-1.9-2.59-.05-.67,.18-1.2,.69-1.58,.51-.38,1.23-.57,2.17-.57l8.39,.02c.3,0,.5-.04,.62-.13,.12-.09,.17-.24,.15-.45l-.03-.39h1.88s.16,2.23,.16,2.23l.16,2.24h-1.88s-.02-.34-.02-.34c-.01-.18-.08-.32-.21-.39-.13-.08-.34-.12-.64-.12h-7.55c-.36-.01-.64,.06-.85,.22-.21,.16-.3,.36-.29,.61,.04,.5,.37,.87,1,1.12,.63,.24,1.57,.36,2.8,.34h5.05c.29,0,.5-.03,.62-.1,.12-.07,.17-.2,.16-.38l-.02-.33h1.88s.16,2.21,.16,2.21l.16,2.21h-1.88s-.03-.38-.03-.38c-.01-.21-.09-.36-.22-.44-.12-.09-.33-.13-.63-.13Z"/>
  <path class="cls-2" d="M274.76,189.17c1.96,.07,3.26,.48,3.89,1.22,.64,.74,.62,1.83-.06,3.25-.71,1.5-1.83,2.62-3.37,3.35-1.53,.73-3.4,1.03-5.63,.92-2.46-.13-4.14-.64-5.03-1.55-.89-.9-.95-2.15-.19-3.75,.57-1.19,1.35-2.12,2.36-2.78,1.01-.66,2.08-.96,3.24-.9,.74,.04,1.26,.25,1.55,.63,.3,.39,.31,.86,.04,1.42-.25,.52-.6,.94-1.04,1.23-.44,.29-.92,.43-1.43,.4-.5-.03-.84-.17-1.02-.44-.18-.27-.17-.62,.04-1.05,.12-.27,.29-.5,.5-.68-.29,.06-.57,.18-.85,.37-.47,.33-.86,.8-1.15,1.42-.38,.81-.28,1.39,.31,1.73,.59,.34,1.86,.57,3.8,.67,2.08,.11,3.52,.05,4.33-.16,.81-.21,1.39-.68,1.74-1.42,.3-.64,.21-1.12-.28-1.45-.48-.34-1.37-.52-2.66-.54l.89-1.88Z"/>
  <path class="cls-2" d="M40.71,217.32l10.63-4.76c.32-.14,.5-.29,.54-.44,.03-.15-.06-.38-.28-.69l-.37-.57,1.81-.81,2.09,3.24,2.46,3.82c1.15,1.78,1.63,3.26,1.44,4.43-.18,1.17-1.03,2.1-2.55,2.78-1.55,.69-2.99,.74-4.33,.15-1.33-.59-2.62-1.85-3.85-3.76l-.97-1.51-4.2,1.88c-.26,.12-.41,.25-.45,.39-.05,.15,.01,.35,.17,.59l.7,1.08-1.81,.81-2.21-3.44-2.22-3.45,1.81-.81,.35,.54c.2,.3,.39,.49,.57,.56,.18,.07,.4,.05,.66-.06h0Zm8.45,1.09l.65,1.01c.54,.84,1.14,1.35,1.79,1.52,.65,.18,1.47,.05,2.43-.38,.96-.43,1.53-.92,1.7-1.47,.18-.55,0-1.24-.54-2.08l-.65-1.01-5.38,2.41Z"/>
  <path class="cls-2" d="M48.67,228.94l7.47-2.86c.28-.11,.44-.22,.49-.33,.05-.12,0-.28-.16-.49l-.26-.36,1.68-.64,.91,1.24,.9,1.24,.46,.63-1.05,.4h.16c1.12,.09,1.96,.51,2.51,1.27,.44,.61,.56,1.18,.37,1.7-.19,.53-.68,.94-1.46,1.24-.62,.24-1.2,.3-1.74,.18-.55-.11-.98-.38-1.3-.82-.27-.37-.36-.71-.26-1.03,.1-.32,.37-.56,.8-.73,.43-.17,.85-.2,1.25-.11,.4,.09,.72,.3,.95,.61,.11,.15,.19,.3,.22,.43l.09-.13c.11-.22,.07-.46-.13-.74-.44-.61-1.07-.91-1.89-.89-.81,.01-2.03,.35-3.66,.99l-4.52,1.72c-.26,.1-.41,.23-.43,.4-.02,.17,.08,.4,.31,.71l.4,.55-1.69,.64-1.76-2.41-1.76-2.42,1.68-.64,.26,.36c.15,.2,.31,.32,.48,.36,.16,.04,.38,.01,.65-.09Z"/>
  <path class="cls-2" d="M74.11,257.61c-1.09-1.29-1.46-2.64-1.11-4.05,.35-1.41,1.42-2.9,3.22-4.46,1.7-1.46,3.29-2.25,4.78-2.37,1.49-.12,2.76,.44,3.8,1.67,.95,1.12,1.27,2.32,.96,3.6-.31,1.28-1.23,2.58-2.78,3.91l-.92,.79-3.99-4.7c-1.3,1.15-2.12,2.05-2.45,2.7-.35,.68-.27,1.34,.26,1.96,.46,.55,1.02,.75,1.66,.62,.64-.13,1.38-.6,2.21-1.42l1.39,1.64c-1.35,1.24-2.6,1.87-3.77,1.89-1.17,.02-2.26-.57-3.27-1.77h0Zm7.19-4.67c1.01-.89,1.65-1.56,1.91-1.99,.3-.5,.26-.97-.11-1.41-.36-.43-.86-.5-1.49-.2-.46,.22-1.17,.71-2.12,1.47l1.81,2.13Z"/>
  <path class="cls-2" d="M91.91,263.85c-1.11,1.44-2.22,2.28-3.34,2.49-1.11,.22-2.23-.18-3.36-1.18-1.19-1.06-1.76-2.29-1.7-3.7,.05-1.4,.73-2.91,2.03-4.54,1.44-1.8,2.87-2.88,4.28-3.23,1.41-.35,2.75,.04,4.02,1.17,.94,.84,1.49,1.76,1.65,2.74,.16,.99-.1,1.9-.78,2.74-.43,.54-.93,.86-1.49,.94-.56,.09-1.06-.07-1.51-.47-.42-.37-.66-.78-.73-1.21-.07-.44,.04-.84,.34-1.21,.29-.37,.63-.57,1.01-.61,.38-.04,.73,.09,1.07,.4,.22,.18,.37,.39,.44,.62,.09-.23,.12-.49,.07-.77-.09-.47-.38-.92-.87-1.36-.64-.57-1.3-.7-1.97-.37s-1.58,1.2-2.71,2.62c-1.22,1.52-1.93,2.62-2.14,3.3-.21,.68-.03,1.28,.56,1.81,.5,.45,1.06,.55,1.66,.3,.61-.24,1.27-.85,1.98-1.81l1.49,1.33Z"/>
  <path class="cls-2" d="M92.93,265.47l5.26-6.92-1.16-.88,1.12-1.48c.98,.6,1.76,.85,2.33,.75,.67-.12,1.37-.61,2.1-1.5l1.65,1.25-1.98,2.6,2.16,1.64-1.12,1.48-2.16-1.64-5.14,6.77c-.37,.49-.59,.86-.65,1.11-.06,.25,.02,.46,.23,.62,.26,.2,.5,.24,.73,.14,.22-.1,.51-.39,.88-.87l.58-.76,1.37,1.04-.58,.76c-.76,1-1.5,1.55-2.23,1.67-.73,.12-1.58-.19-2.54-.92-1.01-.77-1.58-1.53-1.71-2.3-.14-.76,.16-1.61,.88-2.56Z"/>
  <path class="cls-2" d="M24.9,134.38l13.08-.06v-.05c.12-.86-.1-1.46-.65-1.8-.56-.35-1.58-.51-3.07-.51h-1.02s.23-1.68,.23-1.68l3.58-.02,3.58-.02-.81,5.84-.81,5.84-3.58,.02-3.58,.02,.23-1.68h1.02c1.48-.01,2.55-.19,3.21-.54,.65-.35,1.04-.96,1.16-1.81v-.05s-13,.06-13,.06c-.37,0-.63,.08-.77,.22-.14,.15-.23,.43-.27,.86l-.11,.79h-2.08s.5-3.6,.5-3.6l.5-3.62h2.08s-.14,1.03-.14,1.03c-.04,.29,0,.48,.11,.59,.1,.11,.3,.17,.6,.17Z"/>
  <path class="cls-2" d="M20.57,145.77c.04-1.06,.39-1.91,1.04-2.54,.66-.63,1.5-.92,2.53-.88,.9,.04,1.65,.33,2.25,.9,.6,.57,1.22,1.55,1.84,2.95l.66,1.49c.1,.22,.23,.43,.39,.61,.23,.29,.51,.5,.82,.63,.32,.14,.67,.21,1.08,.21,.4,0,.73-.09,.97-.28,.49-.33,.76-.95,.79-1.88,.03-.77-.08-1.37-.33-1.78v.03s.03,.32,.03,.32c-.02,.47-.19,.83-.51,1.09-.32,.26-.74,.38-1.28,.36-.46-.02-.85-.22-1.18-.62-.33-.39-.49-.85-.47-1.35,.02-.64,.25-1.14,.67-1.5,.43-.36,.98-.53,1.68-.5,1.07,.04,1.91,.52,2.53,1.44,.62,.92,.91,2.11,.85,3.58-.05,1.38-.42,2.44-1.1,3.16-.68,.72-1.64,1.06-2.86,1.02l-6.33-.25c-.95-.04-1.58-.04-1.87,0-.29,.03-.44,.12-.44,.27,0,.21,.07,.35,.21,.42,.15,.07,.48,.11,.99,.13l.97,.04-.05,1.33-.97-.04c-1.01-.04-1.79-.29-2.32-.76-.53-.47-.78-1.13-.75-1.96,.04-.99,.47-1.68,1.31-2.1,.22-.09,.45-.19,.72-.26-.23-.15-.44-.3-.63-.47-.89-.78-1.31-1.71-1.27-2.79h0Zm5.26,3.03l2.09,.08-.05-.05c-1.19-1.44-1.98-2.32-2.38-2.65-.4-.33-.88-.5-1.44-.53-.46-.02-.82,.07-1.08,.27-.25,.2-.39,.5-.4,.91-.02,.55,.23,.98,.75,1.3,.2,.12,.45,.24,.76,.36,.19,.07,.46,.14,.8,.19,.34,.06,.65,.1,.95,.11Z"/>
  <path class="cls-2" d="M22.9,156.71l8.34-.53c.31-.02,.52-.08,.63-.18,.11-.11,.16-.29,.14-.56l-.03-.46,1.88-.12,.11,1.78,.11,1.78,.05,.8-11.02,.69c-.29,.02-.5,.09-.62,.2-.12,.11-.16,.3-.15,.56l.03,.47-1.88,.12-.17-2.76-.17-2.77,1.88-.12,.03,.46c.02,.25,.09,.43,.22,.52,.12,.1,.33,.14,.63,.12h0Zm15.81,.44c.03,.54-.13,1.01-.5,1.41-.37,.4-.83,.61-1.39,.65-.56,.04-1.04-.12-1.45-.47-.41-.35-.63-.79-.66-1.33-.03-.54,.13-1.01,.49-1.41,.36-.4,.82-.61,1.38-.65,.56-.04,1.04,.12,1.46,.47,.41,.35,.64,.79,.67,1.33Z"/>
  <path class="cls-2" d="M20.31,163.21l10.6-1.1c.35-.04,.59-.1,.73-.19,.14-.09,.2-.23,.18-.41l-.03-.34,1.87,.21,.21,2.53,.21,2.54-1.87-.21-.04-.47c-.02-.26-.1-.44-.22-.53-.13-.1-.34-.13-.63-.12l-7.2,.55-.26,.03,7.83,2.23c.19,.06,.35,.08,.47,.05,.13-.03,.19-.07,.18-.12l-.07-.79,1.87,.21,.22,2.6,.22,2.61-1.87-.21-.03-.4c-.02-.24-.09-.4-.22-.49-.13-.09-.34-.12-.63-.1l-7.15,.37h0s7.38,2.31,7.38,2.31c.3,.09,.5,.11,.62,.05,.11-.07,.16-.22,.14-.46l-.04-.45,1.87,.21,.16,1.96,.16,1.96-1.87-.21-.03-.34c-.02-.19-.1-.35-.26-.47-.16-.13-.42-.25-.78-.37l-11-3.62-.13-1.52-.13-1.52,5.91-.68-6.15-2.21-.13-1.53-.13-1.54Z"/>
  <path class="cls-2" d="M22.45,179.19c-.24-1.12-.13-1.95,.34-2.49,.47-.54,1.21-.69,2.21-.46,.87,.2,1.67,.66,2.4,1.37,.73,.71,1.58,1.86,2.55,3.46l1.02,1.69c.16,.26,.34,.5,.53,.71,.3,.35,.62,.62,.95,.82,.34,.21,.7,.35,1.1,.42,.39,.07,.68,.04,.87-.11,.39-.26,.48-.86,.28-1.83-.17-.81-.43-1.46-.78-1.94l.02,.03,.1,.34c.11,.49,.04,.84-.2,1.06-.24,.21-.62,.26-1.14,.14-.44-.1-.88-.4-1.3-.87-.42-.48-.69-.98-.81-1.52-.14-.67-.06-1.16,.26-1.46,.32-.3,.81-.37,1.49-.21,1.04,.24,1.98,.91,2.82,2,.84,1.08,1.43,2.4,1.76,3.93,.31,1.45,.23,2.49-.24,3.13-.47,.64-1.3,.82-2.49,.54l-6.16-1.44c-.93-.22-1.53-.34-1.8-.36-.27-.02-.39,.05-.36,.2,.05,.22,.15,.38,.32,.48,.16,.1,.49,.2,.98,.32l.94,.22,.3,1.4-.94-.22c-.99-.23-1.8-.64-2.43-1.24-.63-.6-1.04-1.33-1.23-2.21-.22-1.03,.02-1.69,.72-1.97,.18-.06,.39-.11,.63-.14-.26-.2-.51-.4-.73-.62-1.06-.99-1.71-2.05-1.95-3.18h0Zm5.86,4.18l2.04,.48-.06-.06c-1.53-1.74-2.52-2.82-2.99-3.24-.47-.42-.98-.69-1.53-.82-.45-.11-.77-.08-.97,.09-.19,.16-.24,.46-.15,.88,.12,.58,.48,1.08,1.07,1.52,.22,.17,.5,.34,.83,.52,.21,.11,.48,.23,.82,.35,.34,.13,.65,.23,.95,.3Z"/>
  <path class="cls-2" d="M27.82,191.05l8.28,.33c.31,.01,.5-.03,.58-.13,.08-.1,.07-.3-.02-.6l-.16-.51,1.87,.07,.63,1.96,.63,1.97,.28,.88-1.68-.07,.42,.3c1.44,1.01,2.38,2.19,2.81,3.53,.29,.9,.25,1.6-.12,2.08-.37,.49-1.01,.71-1.95,.67l-8.32-.33c-.29-.01-.48,.04-.57,.15-.08,.11-.08,.31,.01,.6l.17,.52-1.87-.07-.96-2.98-.96-2.99,1.87,.07,.15,.46c.08,.25,.2,.43,.35,.53,.16,.11,.38,.17,.67,.18l7.49,.3c.35,.01,.6-.08,.76-.28,.15-.2,.17-.47,.06-.81-.21-.67-.68-1.18-1.39-1.53-.72-.35-1.68-.54-2.9-.56l-5.01-.2c-.29-.01-.48,.03-.58,.12-.09,.1-.09,.26-.02,.5l.14,.44-1.87-.07-.95-2.95-.95-2.95,1.87,.07,.16,.51c.09,.28,.22,.48,.38,.6,.15,.12,.38,.19,.67,.2Z"/>
  <path class="cls-4" d="M140.36,172.56c-.85,.5,1.76,3.94,1.37,5.74-.05,.25-.19,.72-.54,.72v-.12c-1.68-1.67-3.15-3.17-5.8-3.17-.24-.04-.47-.08-.71-.12-.31-.04-.63-.08-.95-.12h-1.3c-.24-.05-.83,.08-.83,.35,.85,.59,6.99,5.02,6.99,5.52h-.95c-1-.27-4.28-.14-3.2,1.52,1.05,1.6,5.27,2.47,7.22,2.47v-.35c-1.03-.6-2.65-2.49-.88-3.28,2.49-1.11,8.06,.58,8.58,3.27,.13,.68-.14,1.34-.52,1.83-2.07,2.67-6.33,1.46-9.42,1.46v-.12c-3.27-.91-6.55-1.83-9.82-2.74-1.23-.3-2.46-.78-3.8-.78v-.12c-.55-.08-1.11-.15-1.66-.23-.59-.12-1.18-.24-1.78-.35-.28-.04-.56-.08-.83-.12-.28-.04-.55-.08-.83-.12-.28-.04-.56-.08-.83-.12-.36-.04-.71-.08-1.07-.12-.99-.04-1.98-.08-2.96-.12-4.2,0-8.39,.22-11.42,2.54-2.39,1.83-3.77,6.52-1.43,8.92,.87,.88,2.34,1.4,3.49,1.71,1.44,.38,2.72,.59,2.16,2.41-.88,2.85-4.56,4.24-7.37,4.6-1.18,.02-2.36,.05-3.54,.07-.24,.03-.59,.06-.72,.29,.05,.19,.1,.39,.16,.59,.71,1.04,1.97,1.53,2.9,2.29,.8,.65,2.02,3.68,1.78,4.75-.43,.68-.85,1.35-1.28,2.03-.2,.32-.4,.63-.59,.95h.12c1.16,.69,5.58,2.48,5.76,3.9,.12,.9-.72,1.08-1.36,1.29-1.41,.46-3.8,1.35-3.02,3.48,.85,2.3,3.44,1.68,5.11,.81,.24-.18,.48-.37,.73-.55,.04,.04,.08,.08,.12,.12,1.06,.75,1.51,2.1,2.61,2.8,2.34,1.48,5.44-.83,5.44-3.39-.61-.75-1.54-2.58-2.72-2.58,0-.17-.08-.35,.12-.35v-.12c1.43-.18,3.92-.48,3.45-2.44-.12-.51-.43-1.06-.87-1.4-1.01-.8-2.66-.39-3.57,.28-.38,.25-.76,.49-1.14,.74v-.12c-1.22-.88-2.72-6.14-2.72-7.75,4.24-.13,8.52,.62,12.02-1.26,2.78-1.49,5.08-6.66,7.77-6.88,3.94-.33,9,2.2,11.79,4.42,1.25,.99,2.25,2.3,3.53,3.29,2.76,2.13,7.48,2.1,10.62,.7,2.02-.9,2.96-.93,3.92-3.08,.27-.62,.85-1.98,1.81-1.53,1.4,.64,.24,2.49,.06,3.43-.12,.66-.07,1.43,.06,2.07,.2,.97,1.18,1.34,1.62,2.17,.38,1.05,.77,2.11,1.15,3.17,.03,.04,.06,.08,.1,.12,.07,.06,.14,.12,.21,.18,.68,.37,5.06-1.99,6.42-2.13,1.6-.17,3.53,.58,4.7,1.38,.51,.37,1.01,.75,1.52,1.12,2.76,.89,8.13-.91,8.13,3.64,1.37-.41,4.23-2.29,5.51-.55,1.34,1.82-1.03,4.89,2.32,5.28,3.09,.36,2.99-3.79,3.42-3.79,.44,.14,.88,.28,1.32,.42,1.46,.46,3.62,1.03,5.01,.09,3.07-2.06,0-4.39-2.54-4.39-.36-.08-.71-.15-1.07-.24-.36-.04-.71-.08-1.07-.12v-.12c1.47-.76,3.9-3.15,1.47-4.58-2.93-1.73-4.8,2.63-6.56,2.66-1.49,.03-3.36-1.31-4.65-1.9-3.52-1.72-7.03-3.44-10.55-5.16-1.78-.99-3.57-1.97-5.35-2.96-.7-.54-1-1.19-1.36-1.93-.67-1.4-1.37-.7-2.85-.7-.53-.26-1.07-.52-1.6-.78-1.63-1.05-3.01-2.94-4.4-4.31-.85-.85-1.83-2.31-2.95-2.74-.77-.3-1.98-.16-2.89-.16-2.37,0-4.74,0-7.1,0-10.5,0-21,0-31.5,0-.55-.04-1.11-.08-1.66-.12-.43-.04-.87-.08-1.3-.12-.36-.08-.71-.15-1.07-.24-1.35-.67-3.05-.83-3.66-2.46-.7-1.87,1.29-3.15,2.72-3.63,2.34-.79,5.41-.48,7.93-.28,4.03,.31,8.03,.9,11.8,1.78,5.93,1.38,9.81,3.64,16.61,2.08,2.93-.68,5.83-2.46,5.66-5.95-.04-.94-.31-1.94-.87-2.63-1.68-2.09-4.89-3.01-7.62-3.01,.07-.3,.66-1.29,.95-1.29-1.07-3.87-2.05-3.79-5.21-5.64Z"/>
  <path class="cls-4" d="M175.53,175.15c-2.39,.55-2.65,1.15-3.35,3.39-.06,.21-.17,.6-.44,.6v-.12c-.75-.7-1.18-1.76-2.18-2.11-2.83-1.01-6.38,.75-5.24,3.97,.07,.19,.48,1.44,.2,1.44v.12h-.36c-.55-.91-1.2-1.82-2.37-1.95-2.22-.25-3.84,1.49-2.66,3.54,1.05,1.79,2.38,.9,2.98,1.8,.03,.05,.05,.1,.07,.14,.1,.8,.2,1.61,.31,2.41,.19,.65,.85,1.31,.81,2.05-.04,.84-1.47,1.26-1.96,1.88-.45,.59-.44,1.74,.19,2.21,2.24,1.63,3.06-1.74,4.4-1.74,.5,.74,1.16,1.39,1.94,1.8,1.13,.58,5.51,1.44,6.51-.14,.24-.39-.62-.4-.9-.45-5.17-.99-2.88-5.89-3.92-6.34-.31-.1-.95-.26-1.26-.36-.91-.28-1.81-.57-2.72-.85h-.12c-.05-.83-.28-1.8,.28-2.44,.63-.7,4.36,.69,5.28,.89,.22,.04,1.18,.18,1.18,.37h.12c-.38,2.98-1.26,6.14,2.85,6.2,1.02,.01,2.16-.08,2.9-.63,1.72-1.29,.29-3.97,.29-5.57h.24c.78-.39,6.01-1.89,6.49-1.19,1.66,2.36-2.72,3.66-4.24,3.66,.09,2.64,.18,4.78-2.28,5.91-.68,.19-1.36,.37-2.04,.56-.06,.07-.12,.15-.18,.22,1.88,1.24,5.31,1.13,7.16-.2,.45-.32,1.14-1.45,1.72-1.45,.87,.97,3.61,3.54,4.43,1.04,.68-2.04-1.89-2.1-2.17-3.34,0-.05-.01-.11-.02-.16,.24-.53,.47-1.05,.71-1.57,.26-.75,.36-1.94,.26-2.78-.01-.15-.05-.11,.11-.11,.67-.82,1.96-.5,2.66-1.34,1.18-1.42,.97-4.07-1.36-4.07-1-.29-3.32,.99-3.32,2h-.24v-.12c-.26-1.03,.47-1.84,.41-2.94-.12-2.58-3.54-3.13-5.61-2.43-.78,.26-2,2.2-2.38,2.2v-.12c-.81-1.6-.75-3.76-3.2-3.76v-.12Z"/>
  <path class="cls-4" d="M191.51,187.13c-.43,.04-.87,.08-1.3,.12-.25,.89-.11,1.89-.13,2.56-.01,.46,.83,.54,1.76,.27,1.8-.52,1.61-2.72-.33-2.95Z"/>
  <path class="cls-4" d="M160.3,187.16c-1.2,.01-2.82-.06-2.82,1.5,0,.48,.11,.97,.48,1.24,.37,.28,.85,.32,1.35,.32,.52,0,1.14-.01,1.14-.04-.03-.71-.01-2.29-.15-3.02Z"/>
  <path class="cls-4" d="M202.76,190.18c-3.45,.11-3.15,3.99-4.14,3.99v-.12c-.42-.55-.84-1.09-1.27-1.64-1.38-.94-3.26,.24-3.76,1.55-.66,1.75,1.26,3.36,.94,4.06-.91,1.98-6.18,4.5-8.23,4.5-.54-.18-1.08-.37-1.62-.55-2.91-1.4-3.11,.62-5.23,1.97-.28,.23-.56,.47-.84,.7v.23h.12c2.09,1.14,4.18,2.28,6.27,3.41,.71,.39,1.77,1.21,2.63,1.21,.73,0,2.41-2.07,3.12-2.53,1.99-1.29,4.54-1.97,7.16-1.97v-.23h-.12c-.1-.07-2.13-1.53-2.13-1.53v-.23c.71-.43,1.42-.86,2.13-1.3,.73-.41,1.48-.86,2.25-.24,1.21,.96,3.3,2.94,4.96,1.64,.54-.43,.8-.99,1.03-1.59,.93-2.39-.64-3.68-3.02-3.68-.31-.08-.63-.15-.95-.24,.17-1.2,2-.75,2.78-1.47,1.56-1.45,1.56-4.1-.36-5.24-.57-.23-1.15-.45-1.72-.69Z"/>
  <path class="cls-4" d="M184.53,196.06c-.84,.26-1.41,.93-2.63,1.64-.23,.14,.45,.69,.69,.99,.27,.33,.64,.66,1.04,.74,2.04,.38,2.6-1.62,.9-3.37Z"/>
  <path class="cls-4" d="M167.12,196.41c-1.03,.62-2.11,2.36-.81,3.26,1.11,.76,3-.48,3-1.71-.75-.47-1.44-1.08-2.18-1.55Z"/>
  <path class="cls-4" d="M175.65,196.88c-1.69,.52-2.81,1.53-4.86,1.53,.37,2.82,3.96,4.75,6.72,3.35,.85-.43,4.29-3.7,1.69-3.7-.55-.12-1.11-.23-1.66-.35-.63-.19-1.27-.39-1.89-.59v-.24Z"/>
  <path class="cls-4" d="M129.11,204.87c-1.31,.36-3.99,4.46-5.09,4.46,.2,.71,.57,4.23-.59,4.23v.12h.12v.12h.12c.67-.05,1.34-.1,2.01-.16,4-.2,4.76,2.14,7.4,4.32,.94,.77,2.38,1.43,2.77,2.65,.51,1.59-.81,2.2-.81,3.29h.12v.12h.12c1.75-.87,6.57-3.14,7.69-.19,.68,1.78-1.65,3.68,1.46,4.56,1.87,.52,3.28-.61,3.5-2.37,.04-.04,.09-.07,.13-.11v-.12c1.91,.12,4.03,3.16,5.7,.95,.4-.53,.66-1.38,.58-2.12-.2-1.92-2.4-2.72-4.26-2.4-.18,.03-.61,.23-.61,.04-.12-.08-.24-.15-.35-.23,.96-1.5,2.97-1.4,1.94-3.61-.26-.57-.85-.94-1.48-.99-1.14-.12-2.33,.42-3.19,.96-.4,.24-.79,.47-1.19,.7v-.12c-2.55-.9-5.01-3.03-7.18-4.64-.93-.65-1.85-1.29-2.77-1.94v-.23c1.58-.6,3.21-1.29,5.09-1.29v-.12c-1.13-1.63-6.95-5.4-8.88-5.4-.24-.04-.47-.08-.71-.12-.31-.04-.63-.08-.95-.12-.24-.08-.47-.15-.71-.23Z"/>
  <path class="cls-2" d="M55.75,241.59c-1.27-1.55-1.77-2.94-1.48-4.15,.28-1.22,1.37-2.38,3.24-3.49,1.86-1.07,3.51-1.5,4.95-1.29,1.44,.21,2.8,1.09,4.07,2.64,1.27,1.55,1.78,2.95,1.52,4.17-.27,1.2-1.31,2.33-3.13,3.4l-.06,.03c-1.88,1.11-3.55,1.56-5.01,1.34-1.46-.21-2.83-1.1-4.1-2.65h0Zm1.55-.91c.44,.54,1,.75,1.66,.63,.66-.12,1.77-.63,3.32-1.53,1.52-.89,2.46-1.57,2.82-2.05,.35-.48,.31-.99-.13-1.53-.44-.54-.99-.75-1.64-.64-.66,.12-1.74,.62-3.27,1.51-1.55,.9-2.51,1.6-2.88,2.08-.37,.48-.33,.99,.11,1.53Z"/>
  <path class="cls-2" d="M75.37,241.08c.24-.21,.35-.4,.33-.59-.01-.18-.17-.43-.46-.72l-1.12-1.15,1.46-1.25,2.3,2.36,2.3,2.36,.9,.93-10.78,9.26c-1.15,.99-2.31,1.39-3.47,1.2-1.16-.19-2.43-.98-3.79-2.38-1.07-1.1-1.75-2.15-2.06-3.18-.3-1.02-.16-1.79,.43-2.29,.41-.35,.92-.47,1.55-.36,.62,.11,1.18,.42,1.67,.92,.45,.46,.7,.95,.77,1.47,.06,.52-.08,.93-.43,1.23-.35,.3-.73,.39-1.16,.27-.38-.11-.81-.38-1.28-.84,.16,.44,.39,.81,.71,1.12,.73,.75,1.38,1.01,1.97,.78,.38-.16,.88-.59,1.49-1.28,.4-.46,.78-.89,1.13-1.27,.35-.38,.59-.62,.7-.72l6.85-5.88h0Zm7.35-3.24c-.61-.63-1.28-1.03-2-1.2-.72-.17-1.3-.07-1.73,.3-.43,.37-.59,.9-.47,1.59,.12,.69,.49,1.34,1.1,1.97,.61,.63,1.27,1.03,1.99,1.2,.72,.17,1.29,.08,1.73-.3,.43-.37,.59-.9,.47-1.59-.12-.69-.48-1.35-1.09-1.97Z"/>
  <path class="cls-2" d="M27.72,113.64c-.8-.39-.85-1.02-.15-1.91,.48-.57,.52-1.34,.11-2.3-2.04-4.49-3.68-8.75-4.95-12.77-.45-1.77-.08-2.21,1.15-1.34,2.21,2.05,3.86,4.38,4.97,6.99,.52,1.19,1.07,2.25,1.68,3.17,.81-1.76,1.67-3.87,2.61-6.31,.27-.56,.61-1.42,1.03-2.57-1.71-.87-3.09-1.4-4.15-1.6-.64-.25-1-.61-1.09-1.08,.07-.6,.83-1.09,2.3-1.49,1.73-.42,3.81,0,6.23,1.27,.73,.36,1.26,.84,1.59,1.42,.18,.3,.5,.68,.97,1.15,.28,.36,.06,.61-.63,.73-.2,.01-.22,.23-.07,.64,.19,1.08-.66,1.13-2.56,.16-1.48,4.33-2.55,8.72-3.22,13.15-.13,.88-.82,1.64-2.07,2.26-1.49,.76-2.55,1-3.16,.71l-.58-.27h0Zm7.1-.45c.35,1.41,2.77,2.47,7.28,3.16,1.27,.22,2.54,.33,3.81,.33,1.02,0,1.55-.28,1.6-.84-.01-.52,.06-.98,.21-1.4,.45-.03,.71-.39,.81-1.07,.27-1.1,.69-2.06,1.23-2.89,1.08-1.47,1.6-2.67,1.55-3.57-.28-1.34-.86-1.84-1.76-1.49-2.79-4.38-5.2-6.49-7.25-6.34-1.73,.19-2.45,.75-2.17,1.69-1.35,2.27-2.5,5.58-3.43,9.94-1.62,.55-2.24,1.37-1.86,2.47h0Zm8.09-9.61c1.14,1.15,2.26,2.6,3.38,4.34,.16,1.17-.14,2.36-.91,3.58-.24,.38-.51,.8-.8,1.27-.7,.22-2.06-.18-4.08-1.17,.52-2.64,1.33-5.31,2.42-8.01Z"/>
  <path class="cls-2" d="M45.23,62.9c.61-.11,1.23,.02,1.88,.39,.69,.35,1.05,.86,1.08,1.56l-.42,.71c.72,.06,1.3,.16,1.75,.29,.32,.15,.64,.35,.97,.61,.49-.76,1.01-1.55,1.56-2.37,.12-.21,.25-.36,.41-.46-.16-.53-.09-.9,.22-1.13-.45-.56-.78-1.16-.98-1.8,.06-.39,.34-.75,.84-1.06-.02-.38-.04-.77-.07-1.15-.59,.27-1.2,.51-1.81,.71,.13,.7-.14,1.52-.8,2.45-.46,.65-.98,1.15-1.56,1.51-.55,.29-1.01,.24-1.38-.15-.51-.41-.49-.86,.05-1.38,.62-.84,1.22-1.67,1.77-2.49,.22-.33,.61-.47,1.13-.43-.33-.16-.43-.74-.27-1.72,.02-1.2,.11-2.45,.29-3.77,.08-.84,.61-1.08,1.6-.71,.61,.21,.82,.61,.64,1.22-.27,.93-.51,1.98-.71,3.15,.33-.06,.68-.18,1.06-.36,.03-1.21,.1-2.34,.2-3.4,0-.46,.37-.7,1.12-.72,.7,.01,.99,.39,.86,1.12-.26,.78-.41,1.48-.45,2.08,.74-.19,1.41-.12,2,.22,.61,.43,.81,.92,.59,1.48-.4,.69-.88,1.56-1.45,2.62-.35,.68-.82,1.38-1.44,2.09,.94-.03,1.76,.24,2.47,.79,.78,.9,.84,1.46,.15,1.69-.66-.14-1.38-.33-2.17-.59-.06,.39-.01,.68,.14,.87,.61,.12,.86,.41,.73,.89-.24,.64-.54,1.25-.92,1.81-.2,.36-.46,.5-.77,.4,.09,.65-.24,1.08-.99,1.3-.81,.19-1.64-.03-2.48-.65-.54-.46-1.16-.85-1.82-1.18-.43-.14-.77-.43-1.01-.87-.46,.76-.78,1.55-.96,2.36-.24,.82-.59,1.17-1.06,1.06-1.31-.51-1.7-1.04-1.17-1.61,.37-.43,.34-1.31-.1-2.64-.65,.46-1.19,.9-1.62,1.33-.68,.63-1.32,.84-1.92,.63-1.53-.42-2.77-.47-3.73-.14-.75,.28-1.16,.14-1.21-.42-.1-.98,.37-1.78,1.42-2.38,1.18-.63,2.69-.49,4.54,.39,.3-.26,.32-.6,.06-.99-.78-1.11-1.11-1.99-.99-2.67,.24-.92,.66-1.07,1.23-.47,.39,.44,.6,.86,.63,1.26-.03,.92,.03,1.62,.21,2.08,.28-.26,.65-.46,1.08-.6-.17-.61-.39-1.25-.63-1.91-.08-.28,.08-.64,.48-1.08,.29-.49,.9-1.19,1.82-2.1-.38-.44-.79-.91-1.22-1.4-.32-.49,.21-.95,1.58-1.38,.57-.22,1.2-.1,1.88,.39,.96-.45,1.57-.39,1.79,.17,.12,.51-.11,1.25-.7,2.24-1.37,1.89-2.59,3.1-3.68,3.62l.24,.68h0Zm7.93,1.96c-.44,.52-.76,1.15-.95,1.88-.08,.44,.26,.61,1.03,.52,.06-.32,.17-.66,.31-1.02,.07-.34-.06-.8-.38-1.38h0Zm-6.52-.11c-.35-.33-.72-.45-1.09-.38,.11,.57,.24,1.01,.36,1.31,.25-.29,.5-.6,.73-.93h0Zm7.46-6.47c.27-.13,.53-.41,.79-.85-.2-.18-.48-.29-.83-.33l.04,1.18h0Zm-3.68,3.45c-.46,.65-.94,1.26-1.43,1.83-.48,.55-.39,1.03,.27,1.42,.47,.23,.92,.2,1.34-.07,.47-.38,.83-.82,1.06-1.32,.33-.67,.37-1.21,.11-1.64-.46-.67-.91-.75-1.35-.22h0Zm1.73,9.11c-.63,.65-.71,1.27-.23,1.86,.58,.75,1.15,.77,1.71,.07,.66-1.05,1.29-2.11,1.89-3.19,.31-.62,.4-1.35,.27-2.2-.22-.66-.5-.7-.83-.11-.97,1.35-1.9,2.54-2.8,3.58h0Zm2.39,1.76c.32,1.15,.75,2.18,1.28,3.08-.77,.44-.57,1.09,.61,1.94,.68,.4,1.26,.27,1.76-.41,1.57-1.99,2.55-3.71,2.93-5.14,.3-1.42,.62-2.32,.97-2.71,1.14,1.16,1.98,2.51,2.52,4.07,.43,1.5,.27,2.7-.49,3.59-.38,.32-.85,.68-1.42,1.04-.37,.29-.44,.52-.19,.67,.31,.35,.64,.65,.99,.9,.49,.35,.98,.51,1.46,.47,.36,.06,.68-.24,.94-.88,.32-.83,.73-1.48,1.25-1.95,.55-.44,.86-1.03,.94-1.79,.2-2.43-.55-4.75-2.25-6.96-1.3-1.61-2.55-2.25-3.74-1.93-.92,.36-1.09,1.09-.51,2.17-.56,.42-1,.93-1.32,1.53-1.02,1.54-2.07,2.88-3.16,4.04-.18-.29-.32-.6-.41-.93,1.03-1.2,1.71-2.45,2.05-3.75,.08-.69-.13-1.11-.61-1.24,.21-.49,.32-1.11,.3-1.88,.06-.71-.29-1.26-1.03-1.64-.79-.29-1.24,.03-1.36,.95-.08,.76,.17,2.05,.78,3.86-.44,1.07-.85,1.85-1.24,2.33-.89-.24-1.24-.05-1.05,.58h0Zm-6.92-4.58c-.8,.26-1.04,.61-.72,1.05,.41,.4,.92,.7,1.51,.91,.69,.14,1.14-.04,1.34-.55,.19-.49,.06-.83-.37-1-.57-.24-1.16-.37-1.76-.41h0Zm9.09-7.99l-.11-.04c-.88-.05-1.17,.26-.87,.91,.26,.51,.74,.84,1.43,1.02,.59,.13,.92-.17,.96-.9-.3-.45-.77-.78-1.41-.99h0Zm-11.72,11.29c-.51-.45-.36-.82,.46-1.1,.93,.18,1.72,.27,2.38,.26,.21-.28,.46-.25,.76,.08,.26,.28,.61,.47,1.05,.54,.43,.67,.27,1.16-.47,1.46-.95,.19-1.89,.12-2.8-.18l-1.38-1.06h0Zm-1.25,1.3c-1.18-.21-2.28-.03-3.29,.56-1.21,.76-1.49,1.54-.84,2.35,.29,.32,.71,.41,1.27,.28,1.01-.14,1.99-.18,2.93-.09,1.18,.09,1.58-.49,1.2-1.74-.25-.81-.67-1.26-1.28-1.35h0Zm4.25,9.81c-.44-.97-.22-1.13,.66-.48,.95,.96,1.74,1.62,2.36,1.95,.94,.26,1.56,.78,1.86,1.54,.13,1.16-.16,1.74-.89,1.75-1.43-.15-2.59-.7-3.46-1.64-1.1-1.1-1.26-1.83-.46-2.18,.2-.08,.17-.39-.07-.94h0Zm10.18-24.69l-.26-.05c-.54,.15-.77,.39-.66,.74,.27,.62,.53,1.04,.78,1.28,.56,.44,1.07,.52,1.54,.24,.56-.31,.68-.8,.33-1.47-.33-.52-.9-.76-1.73-.74Z"/>
  <path class="cls-2" d="M76.75,27.69c.15-1.19,.8-1.64,1.94-1.34,1.32-.58,2.3-.84,2.94-.78,.6,.36,.82,.9,.67,1.62-.33,.93-.85,1.75-1.58,2.48,.07,.36,.15,.75,.22,1.16,1.16-1.03,2.52-1.76,4.1-2.19,.07-.68,.49-1.18,1.26-1.5,.89-.33,1.71-.02,2.45,.92,.64,1.11,.7,2.35,.19,3.72-1.02,2.33-2.29,4.55-3.81,6.64,0,.5-.05,1.02-.11,1.55,.59-.85,1.28-1.4,2.07-1.63-.4-.72-.34-1.31,.19-1.77,.76-.61,1.54-.67,2.36-.16,.52,.5,.75,1.06,.68,1.7-.26,.82-.84,1.54-1.76,2.18,.46,.13,.79,.34,.97,.62,2-1.3,3.96-2.48,5.89-3.53,1.55-.72,2.7-.71,3.44,.03,.2,.3,.3,.7,.32,1.19-.17,.63-.7,1.09-1.58,1.39-2.12,.69-4.37,1.65-6.77,2.87,1.05,1.49,1.99,3.03,2.82,4.62,.43,.79,.84,1.61,1.23,2.44-.82,.79-1.4,1.65-1.75,2.59-.35,.99-.95,1.4-1.8,1.24-.53-.12-1.05-.38-1.55-.79-.56-.43-.66-.87-.3-1.32,.7-.61,.96-1.22,.77-1.83-.78-1.66-1.63-3.37-2.54-5.13-1.2,.78-2.24,1.58-3.11,2.43,.76,.38,1.46,.88,2.09,1.5,.29,.34,.38,.74,.25,1.22-.28,.91-.91,1.27-1.88,1.09-.84-.17-1.69-.68-2.54-1.51-1.24,.92-2.34,1.89-3.31,2.93-.52,.55-1.36,.81-2.55,.81-1.25-.2-1.66-.73-1.23-1.61,.34-.59,.89-1.14,1.64-1.65,2.94-2.31,6.14-4.71,9.59-7.21-.3-.83-.07-1.61,.7-2.35,.05-.17,.16-.36,.36-.58-.27-.15-.52-.04-.75,.32-1.72,1.57-3.29,3.14-4.7,4.72-.5,.81-1.01,1.04-1.51,.69-.32-.15-.63-.55-.92-1.2-.12-.21-.08-.41,.13-.59,1.01-.66,1.85-1.38,2.52-2.18-1.23,.76-2.44,.8-3.6,.12-1.18-.73-2.36-1.44-3.52-2.13-.85-.56-1.48-1.42-1.86-2.58-.24-.55-.22-1.05,.07-1.49,.44-.54,1.05-.66,1.82-.35,.96-.81,1.94-1.61,2.94-2.39-.05-.25-.09-.48-.14-.68-1.06-.07-2.06-.33-2.99-.8-.85-.51-1.04-1-.56-1.45,.39-.33,.73-.65,1.02-.93,.3-.25,.57-.47,.8-.68l.29-.48h0Zm2.98,11.68c.71,.43,1.25,.37,1.61-.17-.23-.47-.48-.98-.75-1.55-.69,.4-1.13,.29-1.33-.34-.15-.62,.04-1.09,.56-1.39-.18-.59-.51-.64-.98-.17-.43,.68-.86,1.28-1.3,1.82l2.19,1.79h0Zm2.47-6.15c.17-.16,.39-.35,.66-.58,.4-.22,.66-.01,.79,.63,.09,.75-.02,1.37-.34,1.84,.01,.34,.11,.71,.27,1.11,.57-.58,1.02-1.21,1.33-1.91,.42-1.15,.69-2.3,.81-3.45,.04-.94-.18-1.32-.66-1.14-.73,1.19-1.75,2.14-3.06,2.84l.21,.65Z"/>
  <path class="cls-2" d="M120.83,13.81c-.31-.21-.58-.48-.78-.8-.26-.42-.32-.74-.18-.96,.06-.37,.32-.7,.78-1.01,.5-.23,1.07-.22,1.69,0,.81,.39,1.33,.87,1.57,1.43,2.12-.21,4.37-.77,6.78-1.68,.26-.67,.78-.77,1.53-.29,.77,.49,1.32,1.13,1.66,1.89,.31,.83,.09,1.44-.67,1.85-.54,.23-1.26,.22-2.14-.03-.54,.51-1.03,1-1.47,1.47-.6,.55-.75,.34-.44-.62,.22-.74,.74-1.48,1.54-2.25,.06-.46-.22-.63-.84-.51-1.78,.58-3.47,1.3-5.04,2.16-.06,.46-.06,.95,.01,1.49,.56,.06,.75,.31,.58,.75-.24,.66-.29,1.27-.15,1.81,.35-.26,.68-.45,.97-.57-.06-.59-.05-1.15,.04-1.68,.22-.34,.44-.7,.66-1.08,.33-.15,.66-.09,1,.2,.44,.53,.83,1.14,1.15,1.82,1.8-.61,3.65-1.2,5.56-1.77,.63-.26,1.4-.22,2.3,.09,.54,.19,.93,.65,1.18,1.4,.14,.24,.13,.52-.02,.84-.31,.59-1.1,.66-2.4,.21-.71-.23-1.68-.23-2.91,0-1.31,.2-2.56,.58-3.77,1.13-.18,1.42-.52,2.64-1.02,3.68,2.12-.28,4.29-.05,6.5,.69,.35,.35,.46,.76,.33,1.24-.15,.38-.28,.82-.38,1.32-.2,.56-.74,.64-1.62,.25-1.82-.86-3.56-1.03-5.21-.47-2.23,1.1-4.38,2.46-6.45,4.09-1.16,.81-1.49,.75-1-.19,.82-1.31,2.03-2.55,3.64-3.74-.97,.14-1.81,.06-2.52-.24-.57-.39-.83-1.03-.79-1.95-2.03,1.41-3.96,3.09-5.78,5.02-.59,.58-1.13,.65-1.59,.21-.3-.26-.52-.57-.63-.91-.31-.75-.15-1.44,.51-2.05,1.17-.79,2.35-1.59,3.54-2.39-.81-.25-1.34-.94-1.6-2.05-.38-1.87-.6-3.64-.67-5.29-.05-.63,.1-1.09,.47-1.38,.57-.4,1.14-.31,1.73,.28,1,.09,2.13-.22,3.36-.92l.99-.5h0Zm-2.25,2.75c-1.05,.46-1.51,1.01-1.38,1.65,.1,.83,.27,1.67,.5,2.55,.2,.83,.09,1.63-.31,2.41,1.19-.73,2.36-1.46,3.52-2.21,.4-1.84,1.02-3.49,1.87-4.94-.38-.17-.68-.4-.91-.66l-3.29,1.21h0Zm5.71,4.59c-.86,.64-1.37,1.25-1.51,1.82,.67-.03,1.45,0,2.33,.09,.27-.75,.47-1.63,.59-2.66l-1.41,.75h0Zm2.63,11.97l1.26,4.72c.02,.18-.37,.46-1.18,.86-.64,.31-1.23,.54-1.77,.71-.25,.04-.22,.24,.09,.57,.41,.43,.88,.82,1.4,1.2,.55,.66,1.4,.36,2.53-.91,1.21-1.18,1.97-2.48,2.29-3.91-.03-1.17-.32-2.55-.85-4.12-.21-.78,0-1.35,.63-1.7,.67-.37,1.43-.7,2.26-1.01,.79-.46,.98-.95,.59-1.47-.21-.37-.49-.66-.83-.9-.41-.47-.91-.66-1.52-.57-1.03,.09-1.89,.23-2.58,.43-.47-.27-1.12-.39-1.96-.35-.43-.31-.79-.1-1.09,.63-.12,.52-.29,.85-.5,1-1.33,1.07-2.69,1.96-4.06,2.66-1,.45-1.42,.99-1.25,1.62,.18,.6,.49,1.15,.93,1.63,.72,.7,1.53,.95,2.44,.75,1.16-.37,2.23-.99,3.19-1.85h0Zm-6.93,4.53c-.13-.66-.03-1.18,.29-1.57,.2-.36,.5-.36,.87-.02,.27,.23,.56,.32,.88,.26,.33,0,.6,.31,.8,.91,.25,.77,.41,1.47,.49,2.1,.03,.71-.22,1.09-.75,1.13-.96,.16-1.75-.54-2.38-2.09l-.19-.72h0Zm18.56-1.29c-.74,.9-1.46,.94-2.14,.15-.86-.96-1.66-1.95-2.4-2.98-.38-.46-.39-.96-.02-1.49,.52-.62,1.16-.75,1.93-.4,1.09,.67,2,1.59,2.73,2.76,.29,.55,.35,1.08,.18,1.59l-.28,.38Z"/>
  <path class="cls-2" d="M160.35,17.84c.06-1.75,.57-3.34,1.53-4.76,.64-1.1,1.33-2.03,2.06-2.77,.3-.45,.92-.53,1.84-.22,1.13,.52,1.73,1.29,1.78,2.28,.68,.03,1.43-.04,2.25-.21,1.22-.17,1.84,.25,1.85,1.26-.1,.5-.46,.81-1.09,.95-.46,.1-.93,.27-1.4,.49,.03,.27,.11,.57,.25,.89,.15,.57,.02,1.25-.39,2.04,.64,.02,1.27,.15,1.9,.39,.09-1.1,.94-2.93,2.53-5.5,.68-1.07,1.49-1.25,2.44-.54,.68,.47,1.23,1.08,1.64,1.82,.8-.04,1.75-.13,2.83-.29,.74-.14,1.48,.22,2.2,1.06,.2,1.23-.38,1.76-1.74,1.59-.7-.13-1.38-.18-2.02-.15,.84,1.65,1.12,2.74,.83,3.26-.26,.46-.75,.72-1.49,.77-.41-.06-.68-.46-.82-1.18-.19-.94-.46-1.82-.8-2.65-.08-.2-.26-.27-.54-.21-.68,.73-1.27,1.54-1.76,2.42-.15,.22-.38,.32-.7,.3-.69,.06-1.06,.15-1.12,.27,.29,.45,.41,.79,.35,1.05,2.75,.34,5.4,.89,7.97,1.65,.54-.63,1.09-.84,1.65-.63,.52,.15,1.05,.58,1.6,1.27,.4,.54,.72,1.03,.94,1.47-.33,.85-.96,1.6-1.89,2.23-.4-.24-.86-.54-1.39-.92-1.1-.68-2.27-.86-3.51-.56-.95,.12-1-.11-.16-.7,.6-.46,1.31-.84,2.13-1.14-2.75-.43-5.33-.78-7.77-1.04-.27,.59-.83,.95-1.68,1.06-.39,.03-.79,.13-1.19,.29,.4,1,.25,2.85-.44,5.55-.15,.6-.24,1.25-.26,1.97-.04,.64,.34,.91,1.12,.81,1.54-.14,3.1-.15,4.67-.05,.45-.6,1.01-.65,1.7-.12,.88,.63,1.15,1.64,.84,3.03-.39,1.24-.81,2.53-1.23,3.88,.57,.12,.69,.62,.39,1.5-.11,.4-.27,.76-.48,1.08-.71,.03-1.38-.04-2.01-.22-1.95-.32-3.92-.56-5.93-.75-.68,.89-1.24,.82-1.7-.22-1.17-3.33-1.57-6.25-1.22-8.75,.47-4.28,1.1-6.65,1.91-7.14,.4-.27,.91-.63,1.51-1.07,.02-.33,.1-.73,.24-1.2-2.11-.25-4.18-.26-6.21,0-.53,.09-.84,1.02-.93,2.8-.12,.81-.73,1.3-1.84,1.47-.42,1.28-.9,1.38-1.42,.31-.5-1.27-.54-2.7-.15-4.3,.19-.86,.34-1.68,.46-2.46,.09-.65,.55-1.15,1.4-1.5l.48,.03h0Zm8.21,18.98c1.35,.42,2.68,.47,4.01,.16,.61-.89,.99-1.95,1.16-3.19-1.8,.26-3.55,.57-5.24,.94-.05,.75-.02,1.45,.08,2.1h0Zm-4.85-17.78c1.95-.02,3.66,.17,5.15,.56,.07-.3,0-.6-.18-.91-.07,.37-.21,.51-.41,.42-.72-.28-1.15-1.22-1.3-2.82-.15-.97-.59-1.42-1.32-1.35-.84,.23-1.51,.66-2,1.3-.48,.77-.93,1.35-1.34,1.71-.49,.23-.75,.5-.77,.82,.17,.17,.43,.27,.77,.29h1.41Zm7.78,4.69c-.95,.52-1.03,1.14-.25,1.84,.29,.21,.59,.37,.9,.48,.2,.13,.2,.45,0,.94-.84,.3-1.6,.69-2.27,1.18-.71,.8-.41,1.33,.9,1.6,1.82,.19,3.39-.02,4.71-.65,.68-.98,.64-1.59-.13-1.84,.79-.58,1.13-1.34,1-2.28-.25-1.26-.94-1.83-2.09-1.71-1.01,0-1.93,.13-2.77,.43Z"/>
  <path class="cls-2" d="M217.29,24.68c1.65,.79,2.18,1.64,1.6,2.55-.45,.62-1.64,1.31-3.56,2.08-.55,.33-1.18,.96-1.89,1.9,.68,1.23,.28,2.37-1.2,3.42-.79,.36-1.63,.63-2.52,.82-.48,.16-.93,.67-1.36,1.53,1.57-.24,2.68-.12,3.36,.36,.41,.35,.14,.86-.83,1.53-.44,.3-1.09,.55-1.94,.78-2.16,.63-4.6,1.05-7.34,1.25-1.57-.09-2.13-.91-1.68-2.44,.24-.86,1.22-1.41,2.95-1.64,.91-.07,1.75-.1,2.53-.1,.41-.71,.88-1.46,1.42-2.23-.49-.24-.82-.9-.99-2-.13-1.92,.43-2.84,1.68-2.76,1.05,.09,1.97,.23,2.76,.44,.59-.85,1.16-1.73,1.7-2.62-.93-.44-1.08-1.48-.47-3.13,.64-1.98,1.73-2.42,3.25-1.3l2.53,1.55h0Zm14.11,10.07l-.3-.84c-.73-1.66-3-3.12-6.82-4.36-.04-1.67-.63-2.48-1.79-2.45-1.81,.16-3.75,2.42-5.83,6.79-1.6,3.49-2.09,5.53-1.46,6.12,.69,.61,1.61,.93,2.75,.97-.98,1.27-1.83,1.63-2.55,1.09-1.42-.65-2.37-.35-2.87,.91-.36,.66,.25,1.52,1.85,2.61-.32,.66-.7,1.39-1.14,2.18-.86,.11-2.12-.35-3.79-1.37-1.75-1.03-2.73-.95-2.95,.22-.33,1.29-.16,2.14,.5,2.57,5.82,3.1,9.93,5.72,12.33,7.88,1.23,.9,2.04,.46,2.44-1.34,.23-1.53-1.71-3.46-5.8-5.8,.84-.93,1.5-1.83,1.98-2.71,1.1,.5,2.23,.95,3.4,1.34,1.36-.38,2.07-1.1,2.11-2.15,.09-1.1-1.02-1.84-3.31-2.2,.42-.5,.74-1.07,.95-1.7,3.66,.76,6.47,.58,8.42-.52,3.24-2.04,4.68-3.94,4.35-5.68-.35-1.16-1.17-1.68-2.45-1.55h0Zm-4.76,1.73l-.63-.57c.35-.67,.79-.98,1.31-.93,.6-.52,1.08-.69,1.43-.52,.5,.22,1.12,.29,1.83,.22l.41,.29c-.47,.45-.92,1.05-1.37,1.82-1.1,1.55-2.47,2.7-4.12,3.47-1.24,.48-2.17,.54-2.81,.2,.9-1.61,1.9-2.21,3.02-1.8,1.18-.33,1.48-1.05,.92-2.17h0Zm-5.99-3.44c-.84,1.84-1.89,3.56-3.14,5.16,.45,.46,1.17,.76,2.17,.92,.48-.43,.89-1,1.24-1.7-.74-.5-.95-1.29-.61-2.36,.45-1,1.26-1.26,2.4-.78,.59,.22,1.11-.13,1.56-1.05-1.01-.75-1.99-1.06-2.94-.94l-.66,.73Z"/>
  <path class="cls-2" d="M248.81,63.03c.22-.9,.83-1.87,1.85-2.91,1.78-1.78,3.61-3.53,5.48-5.22,.89-.91,1.54-1.07,1.95-.48,.18,.42,.37,.86,.55,1.32,.3,.42,.59,.78,.88,1.07,.34,.36,.33,.73-.03,1.12-.44,.42-.84,.46-1.2,.11-.26-.26-.61-.48-1.07-.66-.39-.21-.72-.02-.97,.57,.13,.24,.39,.5,.77,.77,.71,.39,.88,.78,.52,1.17-.3,.31-.65,.6-1.05,.85-.13,.04-.36-.06-.68-.33-.35-.27-.85-.52-1.5-.76-.39,.3-.76,.73-1.11,1.27,.44,.09,.92,.36,1.45,.81,.16,.1,.36,.25,.59,.44,.63-.37,1.37-.59,2.23-.65,.53,0,1.03-.03,1.49-.07,.09-.21,.1-.45,.04-.71-.38-.33-.31-.88,.19-1.63,.73-1.12,1.31-1.26,1.77-.42,.12,.67,.29,1.4,.51,2.2,.61,.13,1.2,.08,1.76-.16,.71-.29,1.4-.18,2.06,.34,.67,.53,.83,1.24,.48,2.1-.42,.86-1.15,.97-2.19,.32-.39-.35-.84-.49-1.35-.41-.13,.01-.28,.1-.45,.25,.12,.45,.11,1-.04,1.65,.85-.08,1.14,.19,.89,.81-.53,1-1.21,1.47-2.04,1.4-.98-.67-2.1-.87-3.38-.6,.08,.91-.11,1.86-.56,2.85-.12,.32-.34,.48-.65,.49,.45,.47,.93,.99,1.42,1.55,.67-.25,1.28-.47,1.85-.65-.37-1.02-.26-1.78,.34-2.26,.62,.06,1.14,.48,1.57,1.25,.61-.07,1.18-.26,1.72-.59-.89-1.21-1.06-1.96-.51-2.25,.62-.22,1.1-.13,1.43,.3,.29,.31,.55,.66,.73,1.05,.41-.32,.81-.59,1.19-.83-.61-.83-.64-1.61-.06-2.33,.39-.46,.88-.36,1.49,.31,.24,.27,.57,.52,1.01,.75,.98,.53,1.38,1.14,1.21,1.84-.11,.77-.85,1.45-2.22,2.04-1.85,.85-3.68,1.69-5.5,2.52-.99,.41-2.04,.55-3.15,.41,.68,.84,1.32,1.71,1.91,2.62,.56-.57,1.1-.25,1.61,.98-.18,.9-.45,1.58-.82,2.03-1.01,1.05-1.85,1.06-2.54,.03-.32-.66-.65-1.28-1.02-1.85-.92-1.22-.83-1.62,.25-1.22,.35,.13,.71,.25,1.07,.37-.47-1.14-1.17-2.2-2.13-3.17-2.7-2.63-5.43-5.21-8.15-7.73-2.09-1.98-3.6-2.68-4.56-2.12-.82,.37-1.56,.8-2.21,1.28-.31,.24-.69,.33-1.15,.29-1.6-.11-1.94-.66-1.02-1.64,1.42-1.37,3.12-2.28,5.12-2.73,.38-.09,.88,.2,1.5,.89,.66,.63,1.32,1.27,1.97,1.93l.43,.05h0Zm2.16-.21c-.46,.44-.91,.75-1.33,.94,.94,.69,1.64,1.38,2.08,2.06,.88-.45,1.73-.68,2.58-.71,.74-.11,1.12-.25,1.14-.4,.01-.72-.13-1.21-.42-1.46-1.06,.32-2.25,.06-3.57-.8l-.48,.37h0Zm6.46,.28c.13,.72,.14,1.31,.01,1.77,.85,0,1.76-.01,2.71-.03-.51-.66-.81-1.34-.9-2.03-.56,.09-1.06,.1-1.51,.05l-.32,.25h0Zm-2.51,5.75c.23-.66,.36-1.44,.4-2.35-.86,.03-1.65,.17-2.39,.39l1.99,1.96h0Zm-2.07,1.75l-1.76-2.26c-1.27-1.41-2.35-1.66-3.24-.75-.62,.49-.58,1.02,.11,1.57,.55,.45,1.1,.8,1.66,1.03-.55,1.06-1.08,1.81-1.6,2.24-.95-1.25-1.85-2.36-2.71-3.32-.55-.57-1.03-.86-1.41-.88-.68,.24-1.2,.54-1.57,.9-.85,.89-.64,1.91,.64,3.08,1.16,.98,2.12,1.79,2.87,2.42-1.71,1.77-3.48,2.32-5.29,1.68-.95-.34-1.82-.99-2.6-1.92-.54-.58-.81-.54-.81,.11-.58-.38-.63-.08-.16,.89-.15,.21-.13,.52,.1,.95,.39,.69,.97,1.23,1.74,1.64,1.56,.76,3.03,1.2,4.42,1.33,1.72,.04,3.34-.75,4.88-2.37,1.28,1.2,2.54,2.53,3.79,3.98,.49,.56,1.1,.41,1.82-.46,.52-.57,.53-1.2,.03-1.89-1.17-1.51-2.44-2.87-3.79-4.11,.44-.16,.85-.26,1.24-.27,.9-.01,1.68,.25,2.32,.78,.62,.51,1.08,.66,1.37,.44,.62-.45,.9-1.13,.84-2.05-.06-.66-.28-1.09-.65-1.28-.77-.29-1.51-.78-2.23-1.48h0Zm-2.11,.25c.02,.72,0,1.48-.08,2.27,.63-.14,1.32-.21,2.08-.19,.15-.31,.34-.53,.57-.64-.76-.46-1.48-.88-2.16-1.23l-.41-.2Z"/>
  <path class="cls-2" d="M285.68,97.87c.57,.28,1.04,.86,1.41,1.73,.31,.84,.34,1.7,.1,2.56-.54,1.96-1.12,3.95-1.77,5.95-.69,2.31-1.29,4.61-1.8,6.87-.33,1.45-.9,2.86-1.71,4.24-.18,.34-.49,.58-.92,.72-.94,.37-1.37,.06-1.27-.92,.08-.54,.2-.98,.35-1.33-.67-.22-1.01-.77-1.01-1.63,.05-.43,.13-1,.23-1.72,.26-.65,.43-1.19,.53-1.62,.13-.36,.19-.71,.21-1.05-2.05,.41-3.83,.41-5.35,.02-.75-.81-1.27-1.57-1.54-2.26-.51-1.29-1.11-2.41-1.79-3.35-.59-.83-1.02-1.47-1.27-1.92-.53-.98-1.1-1.73-1.7-2.27-.73-.56-.94-1.09-.63-1.6,.93-1.32,2.21-2.5,3.84-3.55-1.27-.57-2.31-1.13-3.13-1.68-.6-.49-1.04-1.03-1.29-1.62-.44-.67-.7-1.04-.8-1.1-.48-.41-.02-.69,1.38-.83,1.19-.07,2.24,.19,3.15,.8,2.48,1.13,5.33,2.13,8.54,3.01,1.61,.39,3.34,1.04,5.18,1.96l1.06,.57h0Zm-11.08-.4c1.1,1.21,2.08,2.54,2.92,3.99l.87-.19c-.17-1.04,.01-1.63,.54-1.76,.83-.25,1.48-.03,1.97,.65,.64,.76,1.23,1.64,1.77,2.64,.38,.84,.07,1.49-.94,1.96-.58,.18-1.35-.19-2.29-1.1l-.54-.07c.86,1.33,1.58,2.8,2.15,4.44,.43-.94,1.3-2.54,2.62-4.81,.34-.54,.54-1.1,.58-1.67-.09-.66-.35-1.13-.77-1.4l-.83-.26c-2.68-.77-5.2-1.63-7.57-2.59l-.47,.18h0Zm-1.93,1.22c-.3,.09-.57,.27-.81,.53-.93,.91-1.43,1.57-1.52,1.96,.26,.48,.56,.61,.89,.41,.58-.61,1.32-1.26,2.22-1.95l-.78-.96h0Zm1.46,8.42c1.11,.92,2.74,1.25,4.87,1-.77-1.41-1.57-2.71-2.38-3.91-.97,.18-1.9,.48-2.78,.89,.26,.16,.71,.28,1.34,.35,1.43,.12,2.16,.39,2.2,.8,.09,.91-.26,1.31-1.05,1.2-.92-.26-1.83-.53-2.71-.79l.5,.45h0Zm-2.08-3.63c1.08-.51,2.18-.94,3.28-1.27-.27-.52-.65-1-1.11-1.44-.44,.79-.9,1.29-1.38,1.47-.51,.12-1.03,.23-1.55,.31,.19,.24,.45,.55,.77,.93h0Zm-.53,4.65c-.72-1.16-1.32-2.3-1.78-3.42-.25-.57-.52-1.05-.81-1.42-.34-.42-1.2-.7-2.59-.84-1.58-.06-3.55,.44-5.92,1.5-1.22,.61-2.25,1.63-3.1,3.05-.01,.7,.45,1.17,1.39,1.41,.59,1.2,1.21,2.32,1.85,3.4-.75,.2-1.42,.49-2.01,.89-.35,.35-.25,.72,.3,1.11,.85,.08,1.46,.27,1.82,.56,.54,.51,1.37,.74,2.5,.69,3.12-.4,5.67-1.35,7.64-2.86,1.23-.96,1.81-1.89,1.77-2.81-.04-.78-.39-1.2-1.04-1.26h0Zm-8.45,3.39c2.22-.58,4.42-1.34,6.59-2.3-1.11-1.47-1.97-2.63-2.57-3.48-.3-.39-.56-.59-.78-.6-.39-.07-.84-.03-1.34,.12,.77,.9,1.4,1.98,1.9,3.24,.2,.45-.12,.98-.94,1.59-.54,.37-1.01,.15-1.43-.67-.54-1.19-1.2-2.17-1.97-2.96-.48-.05-.97,.2-1.45,.74,.8,1.35,1.47,2.79,2,4.32Z"/>
</svg>